<?xml version="1.0" encoding="UTF-8" standalone="no"?>
<!-- Created with Inkscape (http://www.inkscape.org/) -->

<svg
   xmlns:dc="http://purl.org/dc/elements/1.1/"
   xmlns:cc="http://creativecommons.org/ns#"
   xmlns:rdf="http://www.w3.org/1999/02/22-rdf-syntax-ns#"
   xmlns:svg="http://www.w3.org/2000/svg"
   xmlns="http://www.w3.org/2000/svg"
   xmlns:xlink="http://www.w3.org/1999/xlink"
   xmlns:sodipodi="http://sodipodi.sourceforge.net/DTD/sodipodi-0.dtd"
   xmlns:inkscape="http://www.inkscape.org/namespaces/inkscape"
   width="744.09448819"
   height="1052.3622047"
   id="svg2"
   version="1.1"
   inkscape:version="0.48.2 r9819"
   sodipodi:docname="New document 1">
  <defs
     id="defs4">
    <linearGradient
       id="linearGradient3935">
      <stop
         style="stop-color:#ffff00;stop-opacity:1"
         offset="0"
         id="stop3937" />
      <stop
         id="stop3943"
         offset="0.5"
         style="stop-color:#ffffff;stop-opacity:1;" />
      <stop
         style="stop-color:#ffff00;stop-opacity:1;"
         offset="1"
         id="stop3939" />
    </linearGradient>
    <linearGradient
       inkscape:collect="always"
       xlink:href="#linearGradient3935"
       id="linearGradient3941"
       x1="348.57144"
       y1="226.64789"
       x2="352.85715"
       y2="63.790752"
       gradientUnits="userSpaceOnUse"
       gradientTransform="translate(10.160997,-30.889098)" />
  </defs>
  <sodipodi:namedview
     id="base"
     pagecolor="#ffffff"
     bordercolor="#666666"
     borderopacity="1.0"
     inkscape:pageopacity="0.0"
     inkscape:pageshadow="2"
     inkscape:zoom="0.49497475"
     inkscape:cx="307.17432"
     inkscape:cy="752.0549"
     inkscape:document-units="px"
     inkscape:current-layer="layer1"
     showgrid="false"
     inkscape:window-width="1280"
     inkscape:window-height="738"
     inkscape:window-x="-8"
     inkscape:window-y="-8"
     inkscape:window-maximized="1" />
  <metadata
     id="metadata7">
    <rdf:RDF>
      <cc:Work
         rdf:about="">
        <dc:format>image/svg+xml</dc:format>
        <dc:type
           rdf:resource="http://purl.org/dc/dcmitype/StillImage" />
        <dc:title></dc:title>
      </cc:Work>
    </rdf:RDF>
  </metadata>
  <g
     inkscape:label="Layer 1"
     inkscape:groupmode="layer"
     id="layer1">
    <path
       style="fill:url(#linearGradient3941);fill-opacity:1;fill-rule:nonzero;stroke:#c61900;stroke-width:6.80000019;stroke-linejoin:round;stroke-miterlimit:4;stroke-opacity:1;stroke-dasharray:none"
       d="m 54.660998,32.079652 c -25.633422,0.12946 25.635436,33.68913 36.218749,53.0625 L 106.31725,113.4234 c 24.1373,44.18471 -60.615228,77.6503 31.53125,76.96875 l 529.71874,-3.90625 c 10.89341,-0.0806 21.2457,-5.67254 21.875,-11.15625 l 8.8125,-76.656248 c 2.98881,-26.04433 -53.45322,-26.80327 -85.96875,-29 l -554.906242,-37.5 c -0.990857,-0.0669 -1.891865,-0.0979 -2.71875,-0.0937 z m 48.750002,18.1875 c 0.70025,-0.003 1.47338,0.0413 2.3125,0.0937 l 469.93749,29.34375 c 27.53602,1.72012 75.31234,2.32524 72.78125,22.718748 l -7.46875,60 c -0.53293,4.29392 -9.30608,8.6869 -18.53125,8.75 l -448.59375,3.0625 C 95.813559,174.76952 167.60184,148.55256 147.161,113.9546 L 134.06725,91.798402 C 125.1047,76.628482 81.70314,50.368522 103.411,50.267152 z"
       id="rect2987"
       inkscape:connector-curvature="0" />
  </g>
</svg>
